<svg width="150" height="27" fill="none" xmlns="http://www.w3.org/2000/svg"><g clip-path="url(#clip0_2017_34)"><path d="M13.462 26.923c7.434 0 13.461-6.027 13.461-13.461C26.923 6.027 20.896 0 13.462 0 6.027 0 0 6.027 0 13.462c0 7.434 6.027 13.461 13.462 13.461z" fill="#00CE90"/><path d="M18.583 22.191l-4.542-4.817c-.297-.315-.862-.315-1.159 0l-4.48 4.752c-.235.25-.71.109-.71-.21V6.318a.85.85 0 01.255-.597c.436-.444 1.155-.265 1.76-.12l3.525.837a1 1 0 00.459.001l3.625-.846c.596-.14 1.317-.32 1.718.143a.775.775 0 01.197.51v15.752c0 .292-.433.42-.648.192z" fill="#fff"/><path d="M16.923 11.923c0-.247-.2-.447-.447-.447h-2.567V8.91a.447.447 0 00-.894 0v2.567h-2.568a.447.447 0 000 .894h2.568v2.568a.447.447 0 00.894 0V12.37h2.567c.247 0 .447-.2.447-.447z" fill="#00CE90"/></g><path d="M149.391 10.931a1.905 1.905 0 01-1.905 1.905h-3.529v3.295a2.015 2.015 0 01-4.029 0v-3.295h-3.498a1.905 1.905 0 010-3.81h3.498V5.73a2.014 2.014 0 014.029 0v3.295h3.529c1.052 0 1.905.853 1.905 1.905zM122.61 4.81c2.603 0 4.601.624 5.996 1.874 1.395 1.228 2.093 3.091 2.093 5.59v9.588h-4.56V19.77c-.916 1.561-2.623 2.342-5.122 2.342-1.291 0-2.415-.219-3.373-.656-.937-.437-1.655-1.041-2.155-1.811-.499-.77-.749-1.645-.749-2.624 0-1.561.583-2.79 1.749-3.685 1.186-.896 3.008-1.343 5.465-1.343h3.873c0-1.062-.323-1.874-.968-2.436-.646-.583-1.614-.875-2.905-.875a8.34 8.34 0 00-2.654.438c-.854.27-1.583.645-2.187 1.124l-1.749-3.404c.916-.646 2.01-1.145 3.28-1.5a14.932 14.932 0 013.966-.53zm-.375 14.023c.833 0 1.572-.188 2.218-.563.645-.395 1.103-.968 1.374-1.717v-1.718h-3.342c-1.999 0-2.998.656-2.998 1.967 0 .625.239 1.125.718 1.5.5.354 1.177.53 2.03.53zm-8.749-9.776h-5.685v12.805h-4.84V9.057h-5.684V5.059h16.209v3.998zM77.684 5.06h4.84v6.558h7.309V5.059h4.872v16.803h-4.872v-6.278h-7.308v6.278h-4.841V5.059zm-3.734 8.463c0 .063-.032.5-.094 1.312H61.145c.229 1.041.77 1.863 1.624 2.467.853.604 1.915.906 3.185.906.875 0 1.645-.125 2.311-.375a5.804 5.804 0 001.905-1.25l2.593 2.812c-1.583 1.811-3.894 2.717-6.934 2.717-1.894 0-3.57-.364-5.028-1.093-1.457-.75-2.582-1.78-3.373-3.092-.791-1.312-1.187-2.8-1.187-4.466 0-1.645.385-3.123 1.156-4.435a8.2 8.2 0 013.217-3.092c1.374-.75 2.904-1.124 4.59-1.124 1.646 0 3.134.354 4.467 1.062a7.622 7.622 0 013.123 3.06c.77 1.312 1.155 2.842 1.155 4.591zm-8.714-5.028c-1.104 0-2.03.312-2.78.937s-1.207 1.478-1.374 2.56h8.276c-.166-1.061-.624-1.904-1.374-2.529-.75-.645-1.665-.968-2.748-.968zM54.798 17.74v8.65h-4.685v-4.528H34.685v4.529H30l.031-8.652h.875c1.312-.041 2.238-.999 2.78-2.873.54-1.874.874-4.55.999-8.026l.25-6.84h16.802v17.74h3.06zM39.15 7.307c-.104 2.603-.323 4.789-.656 6.559-.333 1.749-.843 3.04-1.53 3.872h9.775V4.123h-7.495l-.094 3.185z" fill="#00CE90"/><defs><clipPath id="clip0_2017_34"><path fill="#fff" d="M0 0h26.923v26.923H0z"/></clipPath></defs></svg>